<svg xmlns="http://www.w3.org/2000/svg" width="20" height="21" fill="none"><path fill="#494558" d="M18.75 12.511H17.5v-4.5h1.25a.75.75 0 0 0 0-1.5H17.5v-2.25c0-2.418-1.332-3.75-3.75-3.75h-10C1.332.511 0 1.843 0 4.261v12c0 2.418 1.332 3.75 3.75 3.75h10c2.418 0 3.75-1.332 3.75-3.75v-2.25h1.25a.75.75 0 0 0 0-1.5ZM16 16.261c0 1.577-.673 2.25-2.25 2.25h-10c-1.577 0-2.25-.673-2.25-2.25v-12c0-1.577.673-2.25 2.25-2.25h10c1.577 0 2.25.673 2.25 2.25v12Zm-7.25-6.25a2.753 2.753 0 0 0 2.75-2.75 2.753 2.753 0 0 0-2.75-2.75A2.753 2.753 0 0 0 6 7.261a2.753 2.753 0 0 0 2.75 2.75Zm0-4c.689 0 1.25.561 1.25 1.25 0 .69-.561 1.25-1.25 1.25s-1.25-.56-1.25-1.25c0-.689.561-1.25 1.25-1.25Zm4.75 8.61v.64a.75.75 0 0 1-1.5 0v-.64c0-1.05-.739-2.11-2.39-2.11H7.89c-1.65 0-2.39 1.06-2.39 2.11v.64a.75.75 0 0 1-1.5 0v-.64c0-1.794 1.336-3.61 3.89-3.61H9.61c2.554 0 3.89 1.816 3.89 3.61Z"/></svg>