<svg xmlns="http://www.w3.org/2000/svg" width="23" height="23" fill="none"><path fill="#494558" d="M16.797 12.338a.75.75 0 1 1-1.46.346 3.793 3.793 0 0 0-3.71-2.923 3.816 3.816 0 0 0-3.028 1.5h.718a.75.75 0 0 1 0 1.5h-2.25a.75.75 0 0 1-.75-.75V9.763a.75.75 0 0 1 1.5 0v.128a5.312 5.312 0 0 1 3.811-1.63 5.286 5.286 0 0 1 5.17 4.077Zm5.521-1.077c0 5.928-4.822 10.75-10.75 10.75S.818 17.19.818 11.261 5.64.511 11.568.511s10.75 4.822 10.75 10.75Zm-1.5 0c0-5.1-4.149-9.25-9.25-9.25-5.1 0-9.25 4.15-9.25 9.25 0 5.101 4.15 9.25 9.25 9.25 5.101 0 9.25-4.149 9.25-9.25Z"/></svg>