<svg xmlns="http://www.w3.org/2000/svg" width="20" height="19" fill="none"><path fill="#494558" d="M1.607 18.512c-.145 0-.286-.002-.424-.007a1.207 1.207 0 0 1-1.109-.815 1.221 1.221 0 0 1 .36-1.347c.932-.752 1.305-1.584 1.455-2.155-1.237-1.479-1.89-3.346-1.89-5.425 0-5.153 4.01-8.75 9.75-8.75s9.75 3.598 9.75 8.75-4.01 8.751-9.75 8.751c-1.187 0-2.325-.16-3.394-.479-1.363 1.187-3.241 1.477-4.748 1.477Zm-.379-1.507h.006-.006ZM9.75 1.512c-4.857 0-8.25 2.982-8.25 7.251 0 1.836.605 3.462 1.751 4.702a.749.749 0 0 1 .19.625c-.168 1.071-.696 2.084-1.508 2.915 1.16-.042 2.72-.309 3.68-1.333a.748.748 0 0 1 .792-.196c1.035.358 2.16.54 3.345.54 4.857 0 8.25-2.983 8.25-7.252s-3.393-7.252-8.25-7.252Zm.71 8.366c.003-.008.079-.195.636-.564.983-.655 1.423-1.594 1.238-2.646a2.645 2.645 0 0 0-2.114-2.114 2.627 2.627 0 0 0-3.095 2.584.75.75 0 0 0 1.5 0A1.126 1.126 0 0 1 9.96 6.032c.442.077.819.455.897.896.05.286.043.714-.593 1.137-.43.285-1.022.732-1.226 1.333a.74.74 0 0 0 .463.934.724.724 0 0 0 .245.043.77.77 0 0 0 .714-.497Zm.31 2.384a1 1 0 0 0-1-1h-.01a.996.996 0 0 0-.995 1c0 .552.453 1 1.005 1a1 1 0 0 0 1-1Z"/></svg>