<svg xmlns="http://www.w3.org/2000/svg" width="22" height="23" fill="none"><path fill="#B2B2B7" d="M21.41 13.555C19.925 15.972 16.594 20.03 11 20.03a10.78 10.78 0 0 1-3.188-.48.82.82 0 0 1-.55-1.035.852.852 0 0 1 1.06-.538 9.063 9.063 0 0 0 2.677.402c4.763 0 7.66-3.556 8.961-5.676.46-.744.46-1.665.003-2.407a14.972 14.972 0 0 0-1.383-1.902.811.811 0 0 1 .11-1.163.862.862 0 0 1 1.192.107c.571.67 1.101 1.4 1.532 2.11a3.88 3.88 0 0 1-.004 4.107ZM8.814 14.799 1.445 21.99a.855.855 0 0 1-.598.242.85.85 0 0 1-.597-.242.812.812 0 0 1 0-1.168l3.581-3.495a16.034 16.034 0 0 1-3.244-3.774 3.884 3.884 0 0 1 .002-4.11C2.074 7.027 5.405 2.97 11 2.97c2.07 0 4.022.571 5.815 1.688l3.738-3.647a.861.861 0 0 1 1.197 0c.33.322.33.845 0 1.168L8.817 14.798h-.003Zm-.512-1.835 4.199-4.097a3.098 3.098 0 0 0-1.502-.394c-1.71 0-3.1 1.357-3.1 3.027 0 .525.148 1.021.403 1.464ZM5.03 16.157l2.044-1.994a4.53 4.53 0 0 1-.866-2.665c0-2.58 2.15-4.679 4.792-4.679.998 0 1.938.301 2.731.846l1.84-1.795c-1.427-.816-2.955-1.253-4.57-1.253-4.763 0-7.66 3.555-8.962 5.675a2.276 2.276 0 0 0-.002 2.408c.606.987 1.612 2.322 2.993 3.457Zm9.025-4.18c-.203 1.278-1.257 2.307-2.563 2.504a.829.829 0 0 0-.707.94.84.84 0 0 0 .964.691c2.061-.31 3.66-1.87 3.978-3.882a.829.829 0 0 0-.708-.942c-.45-.068-.893.238-.964.69Z"/></svg>