<svg xmlns="http://www.w3.org/2000/svg" width="21" height="23" fill="none"><path fill="#494558" d="M8.75 18.511h-5c-1.577 0-2.25-.673-2.25-2.25v-12c0-1.577.673-2.25 2.25-2.25H9v2.25c0 2.418 1.332 3.75 3.75 3.75H15v2.25a.75.75 0 0 0 1.5 0v-3a.747.747 0 0 0-.22-.53l-6-6a.749.749 0 0 0-.53-.22h-6C1.332.511 0 1.843 0 4.261v12c0 2.418 1.332 3.75 3.75 3.75h5a.75.75 0 0 0 0-1.5Zm1.75-14.25V3.072l3.439 3.44H12.75c-1.577 0-2.25-.674-2.25-2.25Zm1.25 5.25a.75.75 0 0 1 0 1.5h-7a.75.75 0 0 1 0-1.5h7Zm-2.25 4.75a.75.75 0 0 1-.75.75h-4a.75.75 0 0 1 0-1.5h4a.75.75 0 0 1 .75.75Zm6.25-1.75a4.756 4.756 0 0 0-4.75 4.75 4.756 4.756 0 0 0 4.75 4.75 4.756 4.756 0 0 0 4.75-4.75 4.756 4.756 0 0 0-4.75-4.75Zm0 8a3.254 3.254 0 0 1-3.25-3.25 3.254 3.254 0 0 1 3.25-3.25 3.254 3.254 0 0 1 3.25 3.25 3.254 3.254 0 0 1-3.25 3.25Zm1.78-4.614a.75.75 0 0 1 0 1.061l-1.667 1.667a.752.752 0 0 1-1.06 0l-.833-.834a.75.75 0 0 1 1.061-1.06l.303.302 1.137-1.136a.75.75 0 0 1 1.059 0Z"/></svg>