<svg width="88" height="50" viewBox="0 0 88 50" fill="none" xmlns="http://www.w3.org/2000/svg">
<g id="logo">
<rect width="88" height="50" rx="6" fill="white"/>
<g id="google pay">
<g id="GPAY---SVGs_1_">
<g id="GPay-Brand-Mark_1_">
<g id="GPay_1_">
<g id="Pay_1_">
<path id="Fill-1_1_" d="M42.4214 17.3758V23.1869H46.0082C46.8624 23.1869 47.569 22.8997 48.1281 22.3266C48.7026 21.754 48.9891 21.071 48.9891 20.2809C48.9891 19.5067 48.7026 18.8319 48.1281 18.2579C47.569 17.6695 46.8624 17.3747 46.0082 17.3747H42.4214V17.3758ZM42.4214 25.2326V31.9735H40.2793V15.3301H45.9625C47.4064 15.3301 48.6305 15.8109 49.6403 16.7714C50.667 17.7317 51.1789 18.902 51.1789 20.2806C51.1789 21.6913 50.667 22.8693 49.6403 23.8137C48.6472 24.7594 47.4201 25.2315 45.9625 25.2315H42.4214V25.2326Z" fill="#121212"/>
<path id="Fill-3_1_" d="M53.3429 28.4872C53.3429 29.0458 53.5792 29.5102 54.0536 29.8825C54.528 30.2534 55.0816 30.4397 55.7188 30.4397C56.6204 30.4397 57.4216 30.1061 58.1283 29.4403C58.8349 28.7732 59.1883 27.9921 59.1883 27.0941C58.5207 26.5659 57.5886 26.3034 56.3937 26.3034C55.5242 26.3034 54.7981 26.5133 54.2165 26.9316C53.6349 27.3502 53.3429 27.8672 53.3429 28.4872ZM56.1153 20.2129C57.7 20.2129 58.949 20.6345 59.8656 21.4797C60.7823 22.3249 61.2386 23.4824 61.2386 24.9544V31.9745H59.1894V30.3943H59.0962C58.2114 31.6951 57.0317 32.3455 55.5573 32.3455C54.2998 32.3455 53.2455 31.9745 52.401 31.231C51.554 30.486 51.1309 29.5576 51.1309 28.4401C51.1309 27.2628 51.5759 26.3262 52.469 25.6292C53.3621 24.9322 54.5543 24.5826 56.044 24.5826C57.3169 24.5826 58.3657 24.8155 59.1878 25.2796V24.7911C59.1878 24.0476 58.893 23.4166 58.3032 22.8975C57.712 22.3778 57.0235 22.1191 56.2305 22.1191C55.0342 22.1191 54.0881 22.6224 53.3897 23.6306L51.5021 22.4443C52.5444 20.9564 54.0802 20.2129 56.1153 20.2129Z" fill="#121212"/>
<g id="Group-7_1_">
<path id="Fill-5_1_" d="M73.0003 20.584L65.8487 36.9937H63.637L66.2924 31.2525L61.5879 20.584H63.9178L67.3177 28.766H67.3637L70.6701 20.584H73.0003Z" fill="#121212"/>
</g>
</g>
<g id="G_1_">
<path id="Fill-8_1_" d="M33.7832 23.7811C33.7832 23.1077 33.7262 22.4578 33.6184 21.8359H24.582V25.5191H29.7574C29.5355 26.7199 28.8637 27.7415 27.844 28.4254V30.8174H30.9329C32.7415 29.1522 33.7832 26.6906 33.7832 23.7811Z" fill="#4285F4"/>
<path id="Fill-10_1_" d="M24.582 33.1263C27.168 33.1263 29.3449 32.2784 30.9328 30.8165L27.8439 28.4246C26.9843 29.0026 25.877 29.3404 24.582 29.3404C22.0829 29.3404 19.9616 27.6585 19.2026 25.3926H16.0205V27.8561C17.5975 30.9807 20.8385 33.1263 24.582 33.1263Z" fill="#34A853"/>
<path id="Fill-12_1_" d="M19.2025 25.3938C19.0083 24.8162 18.9019 24.1998 18.9019 23.5634C18.9019 22.9275 19.0083 22.3111 19.2025 21.733V19.2695H16.0203C15.3685 20.5607 15 22.0188 15 23.5637C15 25.1086 15.3685 26.568 16.0203 27.8575L19.2025 25.3938Z" fill="#FABB05"/>
<path id="Fill-14_1_" d="M24.5817 17.7854C25.9936 17.7854 27.2596 18.2698 28.2577 19.2196V19.221L30.9923 16.4912C29.3315 14.9476 27.1661 14 24.5817 14C20.8383 14 17.5972 16.1446 16.0205 19.2689L19.2026 21.7324C19.9614 19.4662 22.0826 17.7854 24.5817 17.7854Z" fill="#E94235"/>
</g>
</g>
</g>
</g>
</g>
</g>
</svg>
