<svg width="29" height="29" fill="none" xmlns="http://www.w3.org/2000/svg"><path d="M24.995 5.128c-2.45-2.45-5.716-2.567-9.1-.467a2.746 2.746 0 0 1-2.683 0c-3.383-2.1-6.65-1.983-9.1.467-2.45 2.567-2.916 6.3-1.166 10.383 2.333 5.484 7.933 10.617 11.666 10.617 3.734 0 9.333-5.133 11.667-10.617 1.633-4.083 1.166-7.816-1.284-10.383Zm-1.983 6.767h-.233c-.467 0-.817-.233-.933-.7-.234-.7-.584-1.284-1.05-1.75-.35-.35-.817-.7-1.284-.817-.466-.233-.817-.817-.583-1.283.233-.467.817-.7 1.283-.584.7.234 1.4.7 1.983 1.284.584.7 1.167 1.633 1.517 2.566.117.584-.233 1.05-.7 1.284Z" fill="#6757A9"/></svg>