<svg xmlns="http://www.w3.org/2000/svg" width="20" height="21" fill="none"><path fill="#494558" d="m17.958 6.402-6.12-5.13a3.244 3.244 0 0 0-4.176 0l-6.12 5.13C.586 7.195 0 7.79 0 9.912v6.35c0 2.417 1.332 3.75 3.75 3.75h12c2.418 0 3.75-1.333 3.75-3.75v-6.35c0-2.123-.586-2.717-1.542-3.51Zm.042 9.86c0 1.576-.673 2.25-2.25 2.25h-12c-1.577 0-2.25-.674-2.25-2.25v-6.35c0-1.527.252-1.736.999-2.356L8.625 2.42a1.75 1.75 0 0 1 2.25 0l6.126 5.136c.747.62.999.83.999 2.355v6.35Zm-6.479-8.75h-.014c-.769 0-1.348.316-1.758.715a2.463 2.463 0 0 0-1.759-.716h-.014c-.923.004-1.697.356-2.238 1.018-.652.795-.889 1.95-.65 3.17.589 3.014 4.199 4.677 4.353 4.746a.753.753 0 0 0 .618 0c.153-.069 3.764-1.732 4.353-4.746.238-1.22 0-2.376-.65-3.17-.542-.662-1.317-1.014-2.241-1.018Zm1.417 3.898c-.355 1.818-2.4 3.083-3.188 3.51-.788-.426-2.833-1.69-3.188-3.51-.15-.768-.024-1.49.338-1.93.252-.31.618-.467 1.086-.469h.005c.737 0 1.021.73 1.049.807a.75.75 0 0 0 .704.508h.008a.756.756 0 0 0 .708-.5c.029-.083.313-.814 1.05-.814h.005c.47.002.835.16 1.088.468.36.44.486 1.162.335 1.93Z"/></svg>