<svg width="145" height="35" fill="none" xmlns="http://www.w3.org/2000/svg"><path d="m30.565 31.07.797-5.899c2.397.756 4.32 1.134 5.767 1.134.564 0 .992-.116 1.285-.35.298-.24.447-.506.447-.8a.65.65 0 0 0-.065-.294.645.645 0 0 0-.236-.253 2.375 2.375 0 0 0-.772-.391c-.201-.07-.37-.125-.505-.163a21.925 21.925 0 0 0-.602-.18c-.482-.136-.859-.245-1.13-.326a18.549 18.549 0 0 1-1.139-.433c-.488-.2-.878-.402-1.17-.603a10.514 10.514 0 0 1-1.01-.833 4.297 4.297 0 0 1-.878-1.142 7.532 7.532 0 0 1-.536-1.485 7.954 7.954 0 0 1-.22-1.925c0-.746.068-1.406.203-1.983.136-.577.312-1.063.529-1.46.222-.398.526-.735.91-1.012a5.741 5.741 0 0 1 1.148-.653c.385-.158.867-.277 1.447-.359a15.83 15.83 0 0 1 1.627-.163 35.25 35.25 0 0 1 1.846-.04c1.784 0 3.877.238 6.279.717l-.732 5.426c-.83-.376-1.776-.691-2.839-.947a12.945 12.945 0 0 0-3.025-.383c-.504 0-.903.082-1.196.245-.292.157-.439.383-.439.677 0 .092.022.18.065.26.049.082.133.161.252.238.12.076.233.144.342.203.108.055.271.12.488.196.217.077.396.136.537.18l.65.196c1.334.402 2.34.767 3.018 1.093 1.778.854 2.911 2.023 3.4 3.508.195.599.292 1.251.292 1.959a8.38 8.38 0 0 1-.22 1.99 5.721 5.721 0 0 1-.593 1.559c-.25.435-.564.821-.944 1.158-.38.332-.788.604-1.228.816-.439.212-.935.386-1.488.522-.553.13-1.111.223-1.675.278-.559.054-1.166.081-1.822.081-2.272 0-4.56-.12-6.865-.359ZM47.628 21.475c0-3.046.043-6.31.13-9.79 1.03-.05 1.98-.074 2.847-.074.894 0 2.006.025 3.334.073.087 0 .163.033.228.098a.314.314 0 0 1 .098.229c.043 1.996.065 4.28.065 6.854h2.147c0-2.965.022-5.358.065-7.18 1.03-.05 1.979-.074 2.846-.074.895 0 2.007.025 3.335.073.087 0 .163.033.228.098a.313.313 0 0 1 .097.229c.087 4.09.13 7.245.13 9.464 0 3.046-.043 6.31-.13 9.791-1.03.05-1.979.074-2.846.074a93.36 93.36 0 0 1-3.335-.074.312.312 0 0 1-.228-.098.314.314 0 0 1-.097-.228c-.033-1.43-.054-3.607-.065-6.527H54.33c0 2.828-.022 5.113-.065 6.853-1.03.05-1.98.074-2.847.074-.895 0-2.006-.025-3.335-.074a.312.312 0 0 1-.227-.098.313.313 0 0 1-.098-.228c-.087-4.09-.13-7.245-.13-9.465ZM65.536 21.467c0-1.583.171-2.991.513-4.226.341-1.24.832-2.274 1.472-3.1a6.718 6.718 0 0 1 2.334-1.918c.916-.452 1.95-.707 3.099-.767 1.057 0 2 .074 2.83.22.83.142 1.589.376 2.277.702.694.32 1.285.74 1.773 1.256.488.517.9 1.146 1.236 1.885.342.74.592 1.602.749 2.587.162.984.244 2.105.244 3.361 0 1.583-.174 2.995-.52 4.235-.348 1.234-.85 2.265-1.505 3.092a6.809 6.809 0 0 1-2.35 1.91c-.917.445-1.953.698-3.108.758-1.052 0-1.992-.07-2.822-.212a9.15 9.15 0 0 1-2.269-.702 5.82 5.82 0 0 1-1.757-1.248c-.482-.517-.892-1.145-1.228-1.885-.33-.74-.575-1.599-.732-2.578-.157-.985-.236-2.108-.236-3.37Zm6.8 0c0 .762.024 1.409.073 1.942.054.533.12.955.195 1.265.081.304.19.54.325.71.136.168.271.277.407.326.136.049.3.073.496.073a1.4 1.4 0 0 0 .488-.073c.13-.05.26-.158.39-.326.13-.17.23-.406.301-.71a8.45 8.45 0 0 0 .18-1.265c.048-.533.072-1.18.072-1.942 0-.63-.016-1.183-.048-1.656a7.902 7.902 0 0 0-.155-1.183 4.804 4.804 0 0 0-.228-.759 1.025 1.025 0 0 0-.317-.449 1.05 1.05 0 0 0-.366-.196 1.317 1.317 0 0 0-.415-.057c-.162 0-.3.017-.414.05a.892.892 0 0 0-.334.203 1.083 1.083 0 0 0-.284.45c-.07.195-.136.45-.196.766-.06.31-.103.702-.13 1.175-.027.468-.04 1.02-.04 1.656ZM84.486 21.475c0-1.093.01-2.678.032-4.756.022-2.078.033-3.648.033-4.708 2.402-.37 4.516-.555 6.344-.555.873 0 1.615.02 2.228.057.618.038 1.255.12 1.911.245.662.125 1.212.302 1.651.53.44.223.865.525 1.277.906.412.38.735.843.968 1.387.239.539.428 1.194.57 1.966.14.767.21 1.646.21 2.636 0 .685-.04 1.316-.121 1.893a9.285 9.285 0 0 1-.35 1.566 5.568 5.568 0 0 1-.585 1.257 5.35 5.35 0 0 1-.79.995c-.287.283-.62.53-1 .743-.374.212-.77.391-1.187.538a9.121 9.121 0 0 1-1.39.343c-.51.087-1.031.15-1.562.187-.526.038-1.104.057-1.733.057.044 2.503.065 4.004.065 4.504a66.986 66.986 0 0 1-2.862.066c-.727 0-1.833-.022-3.319-.066a.312.312 0 0 1-.228-.098.314.314 0 0 1-.097-.228c0-1.007-.011-2.56-.033-4.659-.021-2.1-.032-3.701-.032-4.806Zm6.441-.065h.513c.2 0 .371-.01.512-.033a1.37 1.37 0 0 0 .447-.155c.157-.087.282-.204.374-.35.098-.153.177-.362.236-.629.065-.266.098-.587.098-.962a18.5 18.5 0 0 0-.016-.873 3 3 0 0 0-.074-.612 1.158 1.158 0 0 0-.146-.408.681.681 0 0 0-.26-.229.957.957 0 0 0-.39-.114 4.876 4.876 0 0 0-.554-.025h-.74v4.39ZM100.86 26.501c0-.076.008-.587.024-1.534a241.268 241.268 0 0 1 2.497-7.498c1.014-2.894 1.765-4.854 2.253-5.882 1.382-.028 2.846-.041 4.392-.041 1.203 0 2.862.038 4.977.114.087 0 .163.033.228.098a.313.313 0 0 1 .097.228c.087 4.09.131 7.246.131 9.465 0 3.046-.044 6.31-.131 9.79a54.94 54.94 0 0 1-2.61.058c-.857 0-1.874-.02-3.05-.057a.312.312 0 0 1-.228-.098.314.314 0 0 1-.098-.229 175.49 175.49 0 0 1-.032-2.75c-.737.006-1.545.009-2.424.009-2.456 0-4.348-.025-5.677-.073a.325.325 0 0 1-.227-.09.368.368 0 0 1-.098-.237 32.104 32.104 0 0 1-.024-1.273Zm5.994-3.427c1.54.022 2.366.033 2.48.033v-.824c.006-.37.008-.647.008-.832 0-1.186.047-3.049.139-5.59-.884 2.715-1.76 5.12-2.627 7.213ZM118.467 21.45c0-3.045.043-6.309.13-9.79a60.368 60.368 0 0 1 2.847-.073c.894 0 2.006.024 3.334.073.087 0 .163.033.228.098a.314.314 0 0 1 .098.228c.086 4.09.13 7.246.13 9.465 0 3.046-.044 6.31-.13 9.79-1.03.05-1.979.074-2.847.074a93.06 93.06 0 0 1-3.334-.073.312.312 0 0 1-.228-.098.314.314 0 0 1-.098-.229c-.087-4.09-.13-7.245-.13-9.464ZM128.242 21.45c0-3.045.044-6.309.131-9.79a60.361 60.361 0 0 1 2.846-.073c.895 0 2.006.024 3.335.073.086 0 .162.033.227.098a.314.314 0 0 1 .098.228c.005.256.008.64.008 1.15 0 .545-.041 2.34-.122 5.386h.35c.163-.006.285-.008.366-.008.2-.61.561-1.668 1.082-3.174.52-1.512.908-2.657 1.163-3.435a.434.434 0 0 1 .195-.229.634.634 0 0 1 .301-.098 39.443 39.443 0 0 1 2.61-.081c1.166 0 2.248.06 3.246.18-.667 2.855-1.584 5.433-2.749 7.734-.64 1.093-1.486 1.67-2.538 1.73v.049a2.946 2.946 0 0 1 1.505.506c.45.299.826.707 1.13 1.223.954 1.888 1.86 4.662 2.717 8.323-.998.12-2.134.18-3.408.18-.922 0-1.792-.028-2.611-.082a.636.636 0 0 1-.301-.098.443.443 0 0 1-.195-.229c-.531-1.626-1.285-4.213-2.261-7.759h-.626l.081 2.782c.049 1.67.073 2.94.073 3.81 0 .31-.005.776-.016 1.396-1.03.049-1.979.073-2.847.073-.894 0-2.006-.024-3.334-.073a.312.312 0 0 1-.228-.098.313.313 0 0 1-.097-.229c-.087-4.09-.131-7.245-.131-9.464ZM.59 33.151v-9.585c0-.403.394-.687.775-.558L14.2 27.36c.3.102.626-.053.737-.35l.188-.503a.59.59 0 0 0-.355-.763L.982 20.884a.589.589 0 0 1-.392-.555V9.741c0-.325.263-.589.587-.589h23.535c.324 0 .587.264.587.589v8.796c0 .4-.389.684-.768.56l-12.184-3.954a.587.587 0 0 0-.75.418l-.117.467a.59.59 0 0 0 .374.699l13.252 4.68a.589.589 0 0 1 .392.556v11.188a.588.588 0 0 1-.587.589H1.177a.588.588 0 0 1-.587-.589ZM7.952 7.353h.42a.616.616 0 0 0 .604-.59c.176-2.994 1.72-4.408 3.968-4.408 2.249 0 3.793 1.414 3.969 4.409.019.324.28.589.604.589h.42a.568.568 0 0 0 .573-.59C18.33 2.93 16.36.756 12.944.756c-3.398 0-5.366 2.513-5.563 6.007a.564.564 0 0 0 .571.59Z" fill="#6757A9"/></svg>