<svg width="257" height="56" fill="none" xmlns="http://www.w3.org/2000/svg"><path d="m58.145 51.66 1.388-10.238c4.172 1.313 7.519 1.969 10.04 1.969.981 0 1.727-.203 2.237-.61.519-.415.778-.877.778-1.387 0-.189-.037-.359-.113-.51-.075-.16-.212-.306-.41-.439a4.139 4.139 0 0 0-.553-.354c-.17-.104-.434-.212-.793-.325a14.69 14.69 0 0 0-.878-.284 38.07 38.07 0 0 0-1.047-.311c-.84-.236-1.497-.425-1.969-.566a32.405 32.405 0 0 1-1.982-.751c-.85-.35-1.53-.699-2.04-1.048a18.28 18.28 0 0 1-1.755-1.444 7.457 7.457 0 0 1-1.53-1.983c-.358-.708-.67-1.567-.934-2.577-.255-1.02-.382-2.133-.382-3.342 0-1.293.118-2.44.354-3.44.236-1.001.543-1.846.92-2.535a5.405 5.405 0 0 1 1.586-1.756c.67-.481 1.336-.859 1.997-1.133.67-.274 1.51-.481 2.52-.623a27.63 27.63 0 0 1 2.832-.283c.878-.047 1.95-.07 3.215-.07 3.105 0 6.75.415 10.931 1.245l-1.274 9.417c-1.445-.652-3.092-1.2-4.942-1.643-1.85-.444-3.606-.665-5.268-.665-.878 0-1.572.141-2.081.424-.51.274-.765.666-.765 1.176 0 .16.038.311.113.453.085.142.232.278.44.41.207.133.405.25.594.354.189.095.472.208.85.34.377.133.689.236.934.312.255.075.633.189 1.133.34 2.322.698 4.073 1.33 5.253 1.897 3.097 1.482 5.07 3.512 5.92 6.089.34 1.038.51 2.171.51 3.398 0 1.265-.128 2.417-.383 3.456-.246 1.038-.59 1.94-1.034 2.704a7.992 7.992 0 0 1-1.642 2.01 9.56 9.56 0 0 1-2.139 1.417c-.764.368-1.628.67-2.59.906-.964.227-1.936.387-2.918.482-.972.094-2.03.141-3.172.141-3.955 0-7.939-.208-11.951-.623ZM87.852 35.008c0-5.287.075-10.95.227-16.992 1.793-.085 3.445-.128 4.956-.128 1.557 0 3.492.043 5.805.128.151 0 .283.056.397.17.113.113.17.245.17.396.075 3.465.113 7.43.113 11.895h3.738c0-5.145.038-9.299.113-12.461 1.794-.085 3.446-.128 4.956-.128 1.558 0 3.493.043 5.806.128.151 0 .283.056.397.17.113.113.17.245.17.396.151 7.099.226 12.574.226 16.426 0 5.286-.075 10.95-.226 16.992a105.3 105.3 0 0 1-4.957.127c-1.557 0-3.492-.042-5.805-.127a.546.546 0 0 1-.397-.17.545.545 0 0 1-.17-.396c-.056-2.483-.094-6.26-.113-11.328H99.52c0 4.908-.038 8.873-.113 11.894a105.27 105.27 0 0 1-4.956.127c-1.558 0-3.493-.042-5.806-.127a.543.543 0 0 1-.397-.17.543.543 0 0 1-.17-.396c-.15-7.1-.226-12.575-.226-16.426ZM119.031 34.994c0-2.747.298-5.192.893-7.335.594-2.153 1.449-3.946 2.563-5.381a11.689 11.689 0 0 1 4.063-3.328c1.596-.783 3.394-1.227 5.395-1.33 1.841 0 3.484.127 4.928.381 1.445.246 2.766.652 3.965 1.218 1.208.557 2.237 1.284 3.087 2.18.85.898 1.567 1.988 2.152 3.272.595 1.284 1.029 2.78 1.303 4.489.283 1.708.425 3.653.425 5.834 0 2.747-.302 5.196-.906 7.349-.605 2.143-1.478 3.932-2.62 5.366a11.851 11.851 0 0 1-4.092 3.314c-1.596.774-3.399 1.213-5.409 1.317-1.832 0-3.47-.123-4.914-.368-1.435-.255-2.752-.661-3.951-1.218-1.189-.557-2.209-1.28-3.058-2.167-.841-.896-1.553-1.987-2.139-3.27-.575-1.284-1-2.776-1.274-4.475-.274-1.709-.411-3.658-.411-5.848Zm11.838 0c0 1.321.043 2.445.128 3.37.094.925.207 1.657.34 2.195.141.528.33.939.566 1.232.236.292.472.481.708.566.236.085.524.127.864.127.34 0 .623-.042.849-.127.227-.085.454-.274.68-.566.227-.293.401-.704.524-1.232.132-.538.236-1.27.312-2.195.084-.925.127-2.049.127-3.37 0-1.095-.028-2.054-.085-2.875-.057-.83-.146-1.515-.269-2.053a8.294 8.294 0 0 0-.397-1.317c-.141-.35-.325-.609-.552-.779a1.826 1.826 0 0 0-.637-.34 2.298 2.298 0 0 0-.722-.099c-.283 0-.524.029-.722.085a1.552 1.552 0 0 0-.581.354c-.198.17-.363.43-.495.779-.123.34-.236.784-.34 1.331-.104.538-.18 1.218-.227 2.04-.047.811-.071 1.77-.071 2.874ZM152.023 35.008c0-1.898.019-4.65.057-8.256.038-3.606.057-6.33.057-8.17 4.182-.642 7.863-.963 11.045-.963 1.52 0 2.813.033 3.88.1 1.076.065 2.185.207 3.327.424 1.152.217 2.11.524 2.875.92.764.388 1.505.911 2.223 1.572a6.975 6.975 0 0 1 1.685 2.407c.415.935.746 2.073.991 3.413.246 1.331.368 2.856.368 4.574 0 1.19-.071 2.284-.212 3.285a16.14 16.14 0 0 1-.609 2.719 9.613 9.613 0 0 1-1.02 2.18 9.244 9.244 0 0 1-1.373 1.728c-.5.49-1.081.92-1.742 1.288-.651.369-1.34.68-2.067.935a15.95 15.95 0 0 1-2.422.595c-.887.15-1.793.26-2.718.325-.916.067-1.921.1-3.016.1.075 4.342.113 6.948.113 7.816-1.765.075-3.427.113-4.985.113-1.264 0-3.19-.038-5.777-.113a.542.542 0 0 1-.396-.17.54.54 0 0 1-.17-.396c0-1.747-.019-4.442-.057-8.086a863.885 863.885 0 0 1-.057-8.34Zm11.215-.114h.892c.35 0 .647-.018.892-.056.255-.038.515-.128.779-.27.274-.15.491-.353.652-.608.17-.264.306-.628.41-1.09.114-.463.17-1.02.17-1.671 0-.633-.009-1.138-.028-1.515a5.198 5.198 0 0 0-.128-1.062c-.066-.321-.151-.557-.254-.708a1.191 1.191 0 0 0-.454-.397 1.666 1.666 0 0 0-.679-.198 8.521 8.521 0 0 0-.963-.043h-1.289v7.619Z" fill="#6757A9"/><path d="M180.531 43.73c0-.132.014-1.02.043-2.662 1.142-3.653 2.591-7.99 4.347-13.013 1.765-5.022 3.073-8.425 3.922-10.21a391.01 391.01 0 0 1 7.647-.07c2.095 0 4.984.066 8.666.198.151 0 .283.057.396.17a.54.54 0 0 1 .17.397c.151 7.099.227 12.574.227 16.425 0 5.287-.076 10.95-.227 16.992-1.387.067-2.903.1-4.545.1-1.492 0-3.262-.033-5.31-.1a.546.546 0 0 1-.397-.17.545.545 0 0 1-.17-.396 298.994 298.994 0 0 1-.056-4.772c-1.284.01-2.691.014-4.22.014-4.276 0-7.571-.042-9.884-.127a.567.567 0 0 1-.396-.156.642.642 0 0 1-.17-.41 53.384 53.384 0 0 1-.043-2.21Zm10.436-5.947c2.681.038 4.121.057 4.319.057v-1.43c.01-.642.014-1.124.014-1.445 0-2.058.081-5.29.241-9.7-1.539 4.711-3.063 8.884-4.574 12.518ZM211.187 34.965c0-5.286.075-10.95.226-16.992 1.794-.085 3.446-.127 4.956-.127 1.558 0 3.493.042 5.806.127.151 0 .283.057.397.17.113.113.17.245.17.397.151 7.099.226 12.574.226 16.425 0 5.287-.075 10.95-.226 16.992-1.794.085-3.446.128-4.956.128-1.558 0-3.493-.043-5.806-.127a.546.546 0 0 1-.397-.17.545.545 0 0 1-.17-.397c-.151-7.099-.226-12.574-.226-16.426ZM228.206 34.965c0-5.286.076-10.95.227-16.992 1.793-.085 3.445-.127 4.956-.127 1.557 0 3.493.042 5.806.127.151 0 .283.057.396.17.113.113.17.245.17.397.009.443.014 1.109.014 1.996 0 .944-.071 4.06-.212 9.346h.609c.283-.01.495-.014.637-.014.349-1.058.977-2.894 1.883-5.509a466.857 466.857 0 0 0 2.025-5.961.763.763 0 0 1 .34-.396c.17-.104.344-.161.524-.17a68.912 68.912 0 0 1 4.545-.142c2.03 0 3.913.104 5.65.311-1.161 4.956-2.756 9.431-4.786 13.424-1.114 1.898-2.587 2.898-4.418 3.002v.085a5.14 5.14 0 0 1 2.62.878c.783.52 1.439 1.227 1.968 2.124 1.661 3.276 3.238 8.09 4.729 14.444-1.737.207-3.714.311-5.933.311-1.605 0-3.12-.047-4.545-.142a1.105 1.105 0 0 1-.524-.17.763.763 0 0 1-.34-.396c-.925-2.823-2.237-7.311-3.936-13.466h-1.091l.142 4.828c.085 2.898.127 5.103.127 6.613 0 .538-.009 1.345-.028 2.422-1.794.084-3.446.127-4.956.127-1.558 0-3.493-.043-5.806-.127a.542.542 0 0 1-.396-.17.54.54 0 0 1-.17-.397c-.151-7.099-.227-12.574-.227-16.426Z" fill="#9EDFD7"/><path d="M0 55V38.727a1 1 0 0 1 1.32-.947l21.86 7.389a1 1 0 0 0 1.256-.596l.32-.853a1 1 0 0 0-.605-1.295L.67 34.175A1 1 0 0 1 0 33.23V15.255a1 1 0 0 1 1-1h40.084a1 1 0 0 1 1 1v14.934a1 1 0 0 1-1.307.952l-20.753-6.714a1 1 0 0 0-1.278.709l-.198.793a1 1 0 0 0 .638 1.186l22.57 7.947a1 1 0 0 1 .668.943V55a1 1 0 0 1-1 1H1a1 1 0 0 1-1-1ZM12.54 11.2h.714c.553 0 .997-.449 1.03-1 .3-5.084 2.929-7.485 6.758-7.485 3.83 0 6.46 2.4 6.76 7.485.032.551.476 1 1.028 1h.715a.966.966 0 0 0 .977-1.002C30.214 3.692 26.859 0 21.042 0c-5.788 0-9.14 4.266-9.475 10.2-.031.55.42 1 .972 1Z" fill="#6757A9"/></svg>