<svg width="20" height="27" viewBox="0 0 20 27" fill="none" xmlns="http://www.w3.org/2000/svg">
<path d="M0.0341797 26.0977V18.4279C0.0341797 18.1054 0.349872 17.8781 0.65446 17.9814L10.9248 21.4641C11.1649 21.5456 11.4261 21.4212 11.5151 21.1831L11.6654 20.7811C11.7579 20.5338 11.6297 20.2585 11.3812 20.1709L0.348266 16.2821C0.1601 16.2158 0.0341797 16.0375 0.0341797 15.8374V7.36484C0.0341797 7.10453 0.244528 6.89351 0.504007 6.89351H19.3368C19.5962 6.89351 19.8066 7.10453 19.8066 7.36484V14.4038C19.8066 14.7238 19.4956 14.9507 19.1921 14.8522L9.44211 11.6878C9.18329 11.6037 8.90767 11.7571 8.84169 12.0219L8.7485 12.3958C8.6897 12.6318 8.81955 12.8739 9.04826 12.9547L19.6523 16.7004C19.8403 16.7668 19.966 16.945 19.966 17.145V26.0977C19.966 26.358 19.7557 26.5691 19.4962 26.5691H0.504007C0.244529 26.5691 0.0341797 26.358 0.0341797 26.0977Z" fill="#6757A9"/>
<path d="M5.92549 5.45361H6.26147C6.52095 5.45361 6.7295 5.24205 6.74479 4.9822C6.88579 2.58607 8.12111 1.45452 9.9204 1.45452C11.7197 1.45452 12.955 2.58607 13.096 4.9822C13.1113 5.24205 13.3198 5.45361 13.5793 5.45361H13.9153C14.1748 5.45361 14.3865 5.24144 14.3742 4.98143C14.2296 1.9151 12.6533 0.174805 9.9204 0.174805C7.20081 0.174805 5.6265 2.18545 5.46878 4.98201C5.45413 5.2419 5.66601 5.45361 5.92549 5.45361Z" fill="#6757A9"/>
</svg>
