<svg width="24" height="24" viewBox="0 0 24 24" fill="none" xmlns="http://www.w3.org/2000/svg">
<path d="M21.6238 13.5178L21.6238 13.518C21.117 18.1734 17.1944 21.684 12.5 21.684C9.41606 21.684 6.59309 20.1346 4.91355 17.6673V19.9535C4.91355 20.3945 4.55573 20.7523 4.11478 20.7523C3.67384 20.7523 3.31602 20.3945 3.31602 19.9535V15.2951C3.31602 14.8541 3.67384 14.4963 4.11478 14.4963H8.77324C9.21419 14.4963 9.572 14.8541 9.572 15.2951C9.572 15.736 9.21419 16.0938 8.77324 16.0938H5.83587C7.13897 18.5182 9.68448 20.0864 12.5 20.0864C16.378 20.0864 19.6164 17.188 20.0358 13.3456L21.6238 13.5178ZM21.6238 13.5178C21.6706 13.0794 21.3555 12.6851 20.9156 12.6371L20.9153 12.6371M21.6238 13.5178L20.9153 12.6371M20.9153 12.6371C20.4813 12.5914 20.0829 12.9049 20.0359 13.3453L20.9153 12.6371ZM4.09431 12.2634L4.08327 12.3628C4.11347 12.3662 4.14361 12.3671 4.17074 12.3671C4.57332 12.3671 4.91943 12.0638 4.96323 11.6547C5.38252 7.81209 8.62189 4.91355 12.4991 4.91355C15.3155 4.91355 17.8601 6.4818 19.1632 8.90616H16.2268C15.7858 8.90616 15.428 9.26398 15.428 9.70493C15.428 10.1459 15.7858 10.5037 16.2268 10.5037H20.8852C21.3262 10.5037 21.684 10.1459 21.684 9.70493V5.04647C21.684 4.60553 21.3262 4.24771 20.8852 4.24771C20.4443 4.24771 20.0864 4.60553 20.0864 5.04647V7.33266C18.4069 4.86543 15.5839 3.31602 12.5 3.31602C7.80654 3.31602 3.88393 6.82662 3.3762 11.4819C3.32829 11.9207 3.64466 12.3149 4.08345 12.3628L4.09431 12.2634ZM4.09431 12.2634C3.71046 12.2215 3.43368 11.8766 3.47561 11.4928L12.4991 4.81355C8.57108 4.81355 5.28867 7.75029 4.86382 11.6438C4.82562 12.0016 4.52292 12.2671 4.17074 12.2671C4.14558 12.2671 4.11947 12.2662 4.09431 12.2634Z" fill="#6757A9" stroke="#6757A9" stroke-width="0.2"/>
</svg>
