<svg xmlns="http://www.w3.org/2000/svg" width="24" height="24" fill="none"><path fill="#494558" d="M3 6.133a.9.9 0 1 0 0 1.8v-1.8Zm18 1.8a.9.9 0 1 0 0-1.8v1.8Zm-16-.9v-.9h-.9v.9H5Zm14 0h.9v-.9H19v.9Zm-.658 9.798.864.25-.864-.25Zm-4.618 4.025.15.887-.15-.887Zm-3.448 0 .15-.887-.15.887Zm-.158-.027-.15.888.15-.888Zm-4.46-3.998-.865.25.865-.25Zm8.224 3.998-.15-.887.15.887ZM7.842 5.49l.817.378-.816-.378Zm.976-1.308-.6-.67.6.67Zm1.46-.874.313.843-.313-.843Zm3.444 0 .313-.844-.313.844Zm2.435 2.182.817-.377-.817.377ZM3 7.933h18v-1.8H3v1.8Zm10.732 12.009-.158.027.3 1.774.158-.026-.3-1.775Zm-3.306.027-.158-.027-.3 1.775.158.027.3-1.775ZM18.1 7.033v5.144h1.8V7.033h-1.8ZM5.9 12.177V7.033H4.1v5.144h1.8Zm12.2 0c0 1.49-.21 2.973-.623 4.404l1.73.5c.46-1.594.693-3.245.693-4.904h-1.8Zm-4.526 7.792a9.445 9.445 0 0 1-3.148 0l-.3 1.774c1.24.21 2.507.21 3.748 0l-.3-1.774Zm-3.306-.027a4.727 4.727 0 0 1-3.745-3.36l-1.73.499a6.527 6.527 0 0 0 5.175 4.636l.3-1.775Zm-3.745-3.36a15.883 15.883 0 0 1-.623-4.405H4.1c0 1.659.233 3.31.693 4.904l1.73-.5Zm7.509 5.135a6.527 6.527 0 0 0 5.174-4.636l-1.729-.5a4.727 4.727 0 0 1-3.745 3.361l.3 1.775ZM8.4 7.033c0-.396.087-.792.26-1.165l-1.634-.756A4.572 4.572 0 0 0 6.6 7.034h1.8Zm.26-1.165c.172-.374.428-.72.759-1.016l-1.202-1.34a4.934 4.934 0 0 0-1.191 1.6l1.633.756Zm.759-1.016c.33-.296.728-.536 1.172-.7l-.626-1.688a5.466 5.466 0 0 0-1.748 1.048l1.202 1.34Zm1.172-.7c.444-.165.923-.251 1.409-.251V2.1c-.696 0-1.388.123-2.035.363l.626 1.687ZM12 3.9c.486 0 .965.086 1.409.25l.626-1.687A5.857 5.857 0 0 0 12 2.101v1.8Zm1.409.25c.444.165.842.405 1.172.701l1.202-1.34a5.466 5.466 0 0 0-1.748-1.048L13.41 4.15Zm1.172.701c.33.296.587.642.76 1.016l1.633-.755a4.934 4.934 0 0 0-1.191-1.601l-1.202 1.34Zm.76 1.016c.172.373.259.769.259 1.165h1.8c0-.662-.146-1.315-.426-1.92l-1.633.755ZM5 7.933h14v-1.8H5v1.8Z"/><path stroke="#494558" stroke-linecap="round" stroke-width="1.8" d="M10 12v4m4-4v4"/></svg>