<svg xmlns="http://www.w3.org/2000/svg" width="20" height="21" fill="none"><path fill="#494558" d="M16.5 4.558v-.297c0-2.418-1.332-3.75-3.75-3.75h-10A2.752 2.752 0 0 0 0 3.261v13c0 2.418 1.332 3.75 3.75 3.75h12c2.418 0 3.75-1.332 3.75-3.75v-8c0-2.155-1.058-3.447-3-3.703Zm1.5 9.453h-3.75c-.965 0-1.75-.785-1.75-1.75s.785-1.75 1.75-1.75H18v3.5Zm-15.25-12h10c1.577 0 2.25.673 2.25 2.25v.25H2.75c-.689 0-1.25-.56-1.25-1.25 0-.689.561-1.25 1.25-1.25Zm13 16.5h-12c-1.577 0-2.25-.673-2.25-2.25V5.711c.375.191.8.3 1.25.3h13c1.577 0 2.25.673 2.25 2.25v.75h-3.75a3.254 3.254 0 0 0-3.25 3.25 3.254 3.254 0 0 0 3.25 3.25H18v.75c0 1.577-.673 2.25-2.25 2.25Zm-.99-7.25h.01a1 1 0 1 1 0 2 1.005 1.005 0 0 1-1.005-1c0-.552.443-1 .995-1Z"/></svg>